<svg width="35" height="35" fill="none" xmlns="http://www.w3.org/2000/svg"><path d="M30.625 21.933V6.563a2.738 2.738 0 00-2.734-2.735h-1.094V2.734c0-.904-.736-1.64-1.64-1.64-.905 0-1.641.736-1.641 1.64v1.094H20.78V2.734c0-.904-.736-1.64-1.64-1.64-.905 0-1.641.736-1.641 1.64v1.094h-3.281V2.734a1.642 1.642 0 00-3.282 0v1.094H8.204V2.734c0-.904-.736-1.64-1.64-1.64-.905 0-1.641.736-1.641 1.64v1.094H3.828a2.738 2.738 0 00-2.734 2.735v21.875a2.738 2.738 0 002.734 2.734h18.388a6.56 6.56 0 005.675 3.281 6.57 6.57 0 006.562-6.562c0-2.643-1.573-4.919-3.828-5.958zM24.609 2.734a.547.547 0 011.094 0v3.282a.547.547 0 01-1.094 0V2.734zm-6.015 0a.547.547 0 011.093 0v3.282a.547.547 0 01-1.093 0V2.734zm-6.563 0a.547.547 0 011.094 0v3.282a.547.547 0 01-1.094 0V2.734zm-6.015 0a.547.547 0 011.093 0v3.282a.547.547 0 01-1.093 0V2.734zM3.828 4.922h1.094v1.094c0 .904.736 1.64 1.64 1.64.905 0 1.641-.736 1.641-1.64V4.922h2.735v1.094c0 .904.735 1.64 1.64 1.64.905 0 1.64-.736 1.64-1.64V4.922H17.5v1.094c0 .904.736 1.64 1.64 1.64.905 0 1.641-.736 1.641-1.64V4.922h2.735v1.094c0 .904.736 1.64 1.64 1.64.905 0 1.64-.736 1.64-1.64V4.922h1.095c.904 0 1.64.736 1.64 1.64v2.735H2.188V6.562c0-.904.735-1.64 1.64-1.64zm0 25.156c-.905 0-1.64-.736-1.64-1.64V10.39H29.53v11.153a6.53 6.53 0 00-1.64-.216 6.55 6.55 0 00-1.094.099v-2.833a.547.547 0 00-.547-.547h-3.281a.547.547 0 00-.547.547v3.281c0 .302.244.547.547.547h1.302a6.56 6.56 0 00-2.943 5.469c0 .768.14 1.502.383 2.187H3.828zm21.875-8.75h-2.187v-2.187h2.187v2.187zm2.188 12.031a5.475 5.475 0 01-5.47-5.468 5.475 5.475 0 015.47-5.47 5.475 5.475 0 015.468 5.47 5.475 5.475 0 01-5.468 5.468z" fill="#FE0000"/><path d="M28.438 26.949v-3.433h-1.094v3.433a1.087 1.087 0 00-.547.942c0 .055.008.108.016.161l-1.998 1.599.683.854 1.997-1.597a1.087 1.087 0 001.49-1.017 1.09 1.09 0 00-.547-.942zM8.203 12.031H4.922a.547.547 0 00-.547.547v3.281c0 .303.245.547.547.547h3.281a.547.547 0 00.547-.547v-3.28a.547.547 0 00-.547-.548zm-.547 3.281H5.47v-2.187h2.187v2.188zm6.563-3.281h-3.281a.547.547 0 00-.547.547v3.281c0 .303.244.547.546.547h3.282a.547.547 0 00.547-.547v-3.28a.547.547 0 00-.547-.548zm-.547 3.281h-2.188v-2.187h2.188v2.188zm6.562-3.281h-3.28a.547.547 0 00-.548.547v3.281c0 .303.245.547.547.547h3.281a.547.547 0 00.547-.547v-3.28a.547.547 0 00-.547-.548zm-.547 3.281H17.5v-2.187h2.188v2.188zm3.282 1.094h3.281a.547.547 0 00.547-.547v-3.28a.547.547 0 00-.547-.548h-3.281a.547.547 0 00-.547.547v3.281c0 .303.244.547.547.547zm.547-3.281h2.187v2.188h-2.187v-2.188zM8.203 18.047H4.922a.547.547 0 00-.547.547v3.281c0 .302.245.547.547.547h3.281a.547.547 0 00.547-.547v-3.281a.547.547 0 00-.547-.547zm-.547 3.281H5.47v-2.187h2.187v2.187zm6.563-3.281h-3.281a.547.547 0 00-.547.547v3.281c0 .302.244.547.546.547h3.282a.547.547 0 00.547-.547v-3.281a.547.547 0 00-.547-.547zm-.547 3.281h-2.188v-2.187h2.188v2.187zm6.562-3.281h-3.28a.547.547 0 00-.548.547v3.281c0 .302.245.547.547.547h3.281a.547.547 0 00.547-.547v-3.281a.547.547 0 00-.547-.547zm-.547 3.281H17.5v-2.187h2.188v2.187zM8.203 24.063H4.922a.547.547 0 00-.547.546v3.282c0 .302.245.547.547.547h3.281a.547.547 0 00.547-.547v-3.282a.547.547 0 00-.547-.547zm-.547 3.28H5.47v-2.187h2.187v2.188zm6.563-3.28h-3.281a.547.547 0 00-.547.546v3.282c0 .302.244.547.546.547h3.282a.547.547 0 00.547-.547v-3.282a.547.547 0 00-.547-.547zm-.547 3.28h-2.188v-2.187h2.188v2.188zm6.562-3.28h-3.28a.547.547 0 00-.548.546v3.282c0 .302.245.547.547.547h3.281a.547.547 0 00.547-.547v-3.282a.547.547 0 00-.547-.547zm-.547 3.28H17.5v-2.187h2.188v2.188z" fill="#FE0000"/></svg>